<?xml version="1.0" encoding="utf-8"?>
<!-- Generator: Adobe Illustrator 23.0.4, SVG Export Plug-In . SVG Version: 6.00 Build 0)  -->
<svg version="1.1" id="Layer_1" xmlns="http://www.w3.org/2000/svg" xmlns:xlink="http://www.w3.org/1999/xlink" x="0px" y="0px"
	 viewBox="0 0 800 778" style="enable-background:new 0 0 800 778;" xml:space="preserve">
<style type="text/css">
	.st0{fill:#FFB600;}
	.st1{fill:#999999;}
	.st2{fill:#C9C9C9;}
	.st3{fill:#FF8D00;}
	.st4{fill:#FFB100;}
	.st5{fill:#242424;}
	.st6{fill:#8A8A8A;}
</style>
<path class="st0" d="M713.7,517.9c4.6-5,21-15.7,37.4-4c38.1,27.2,7.3,97.4-27.7,58.6C701.3,548,705.9,526.4,713.7,517.9
	L713.7,517.9z"/>
<path class="st1" d="M609.1,720c18.3-32.8,20.9-63.8,15.9-90.9c-37.2-16.9-77.5-26.6-119-31.5c-10,56.2,18.1,126.1,55.9,122.4
	C571.5,719.1,601.1,734.3,609.1,720L609.1,720z"/>
<path class="st2" d="M567.7,530.7c-37.2,6.1-55.9,34.2-61.7,66.9c41.5,4.9,81.7,14.6,119,31.5C614.1,570.7,567.7,530.7,567.7,530.7
	L567.7,530.7z M423.7,389C403.1,198.7,249.9,97.8,249.9,97.8c33.1-59,124-107,199.5-7.6C525,189.5,423.7,389,423.7,389L423.7,389z"
	/>
<path class="st2" d="M26.6,239.6c-11.9-112.1,114.1-191,241.8-77.3C396,276.1,389.1,437.5,389.1,437.5
	C269.4,455.3,38.5,351.7,26.6,239.6z"/>
<path class="st3" d="M431.6,604.3l11,47.1l17.5,52c15.5,22.9,31.6,36.2,48.2,44.9c5.5,2.9,12.4-1.6,10.5-6.5
	c-17.4-45-19.3-107.8-16.2-144.6c-23.4-2.6-47-3.9-70.5-4L431.6,604.3L431.6,604.3z"/>
<path class="st0" d="M139.2,576.3c0,0,27.1,14.1,51.5,36.3c13.5-2.5,27-4.5,40.6-6.3c-14.3-22.3-28-48-38.7-76.7
	C168.9,530.3,139.2,576.2,139.2,576.3L139.2,576.3z"/>
<path class="st4" d="M441.6,670.3c-10.7-4.1,16.3,61,16.3,73.9c13.5,4.8,16.2,0.6,16.2,0.6l-13.9-41.4
	C453.1,692.9,446.9,681.8,441.6,670.3L441.6,670.3z M457.8,744.2c-3.9-1.4-7.7-3.1-11.3-5c4.2,4.5,7.9,7.5,10.3,7.2
	C457.5,746.3,457.8,745.6,457.8,744.2z"/>
<path class="st0" d="M434.1,545.3l-2.1,47.9c23.6,0.1,47.1,1.4,70.5,4l0.3-3.5c2.8-29.3,18.5-57.5,33-77.9
	c13.7-19.2-98.4-29.1-98.4-29.1L434.1,545.3L434.1,545.3z"/>
<path class="st3" d="M190.7,612.6c11,10.1,21.5,21.8,28.6,34.6c22.8,41.1,47.6,62,47.6,62s19,23,34.2,34c4.9,3.6,11.8-0.8,11.2-5.1
	c-2.3-16.7-5.2-40.8-5.2-40.8c-13.7-13-46-44.5-75.8-90.9C217.7,608,204.2,610.1,190.7,612.6z"/>
<path class="st4" d="M332.4,708c-10.8-7-23.2-15.2-25.3-10.8c4.1,3.9,6.6,6.2,6.8,6.6c0.9,2.5,21,13,21,13L332.4,708L332.4,708z"/>
<path class="st3" d="M310.5,606.9l2.2,29.3l19.7,71.8c5.5,3.6,10.6,6.8,13.7,7.9c20.9,21.1,41,35.8,57.4,42.3
	c14.8,7,19.6,0.2,14.9-8.3c-3.8-12.4-9.1-25.1-11.9-36.6c-2.2-1.6-4.4-3.3-6.5-4.9C334.8,658.2,310.5,606.9,310.5,606.9L310.5,606.9
	z"/>
<path class="st4" d="M406.5,713.3c17.4,12.9,30.3,21,40,26c-12.8-13.8-31.4-42.7-41.6-43.8C404.2,700.8,404.9,706.8,406.5,713.3z"/>
<path class="st5" d="M566.8,604.3c0,12.9,10.4,23.3,23.2,23.3c0,0,0,0,0,0c12.9,0,23.3-10.4,23.2-23.3c0-12.9-10.4-23.3-23.3-23.2
	C577.2,581.1,566.8,591.5,566.8,604.3z"/>
<path class="st5" d="M165,415.5c31.5,18.4,64.8,33.1,97.5,43.1c11.1,32,23.9,63.4,38.3,94.1c-2,13.5-2.8,27.1-2.3,40.7
	c0.9,27,6.3,57.9,18.5,92.7c-13.8-19.1-26.5-38.9-38-59.5c-30-53.3-49.5-105.2-55.1-136c-0.1-0.7-0.3-1.4-0.6-2
	c-2.2-5.9-8.8-8.8-14.6-6.5c-32.9,12.7-58.6,30.7-74.8,51.7c-8,10.4-13.7,21.6-16.7,33.2c-13.6-1-27.5-0.6-41.9-0.2
	c-8.3,0.2-16.9,0.5-25.5,0.4l0,0c-6.2,0-11.3,5-11.3,11.3c0,6.2,5,11.3,11.3,11.3c9.2,0.1,17.8-0.2,26.2-0.4
	c13.3-0.4,26.1-0.8,38.6,0.4c0,0.3,0,0.6,0,0.9c0.9,20,9.4,40.5,26.7,60.3c23.9,27.3,65.1,53.4,127.2,75.1c3.1,1.1,6.6,0.8,9.4-0.9
	c5.4-3.1,7.2-10.1,4.1-15.5l0,0c-56.9-97.8-100-129.6-142.3-139.3c2.4-7.9,6.5-15.6,12.1-22.8c11.6-15.2,29.7-28.7,52.7-39.3
	c8.4,33.3,27.4,81.1,54.6,129.4c24.3,43.2,55.3,87.1,91.2,121.9c3.5,3.7,9.1,4.6,13.6,2.1c0,0,0,0,0,0c5.5-3,7.5-9.8,4.6-15.3
	c-33-61.5-45.9-112.4-47.4-153.2c45.2,84.7,100.6,153.3,157.6,183c3.5,2.1,7.9,2.2,11.5,0.2c0,0,0,0,0,0c5.4-3.1,7.3-10,4.2-15.4
	c-94.8-166.2-43.1-267.7-30.5-288.2c26.9-3.5,52.9,2,76.6,13.6c-16.3,15.3-29.6,33.7-39,54c-9.2,19.8-14.5,41.1-15.6,62.9
	c-1,21.2,2.2,42,9.7,60.6c17.2,42.9,56.4,74.3,117.2,74.3c1.8,0,3.5-0.4,4.9-1.1c34.2-13.7,51.2-40.6,54.9-73.1
	c2.5-21.7-1.2-45.8-9.8-69.7c-8.5-23.5-21.8-47-38.6-67.9c-12.7-15.9-27.4-30-43.7-42.1c27-16.8,61.6-27.2,103.8-27.1v0
	c50.5,0,76.7,19.5,87.2,42.9c3.7,8.3,5.7,17.3,5.8,26.4c0.2,8.5-1.2,17-4,25c-4.9,13.5-13.5,23.2-23.1,23.2c-0.4,0-0.8,0-1.2,0
	c-10.6,0-17.9-3.5-22.5-8.6c-3-3.3-5.1-7.4-6-11.8c-1-4.1-1-8.4,0-12.6c1.1-4.2,3.2-7.6,6.2-9c5.7-2.6,8.2-9.3,5.6-15
	c0,0,0-0.1,0-0.1c-2.6-5.6-9.3-8.1-14.9-5.5c-9.7,4.4-16.1,13.4-18.8,24c-1.9,7.6-2,15.6-0.2,23.2c1.8,8.2,5.7,15.8,11.4,22
	c8.6,9.5,21.6,16,39.3,16h0.4c20.2,0.5,37-15.6,45.1-38.1c3.8-10.6,5.6-21.8,5.4-33.1c-0.2-12.2-2.8-24.2-7.8-35.3
	c-13.8-30.7-46.5-56.4-107.9-56.4v0.1c-51.6-0.2-93.2,14-124.7,36.3c-31.3-17.6-67-26.1-104.3-19.7c-3.2,0.5-6,2.4-7.7,5.2
	c-6.2,8.8-71.7,108.9,6.7,276.5C406.4,693.7,361,627.2,324.2,550c2.9-15.2,7.6-28.2,13.1-39.1c9.7-19,21.7-31,31.3-36.1
	c2-1.1,3.7-1.8,5-2.1l2.1-0.2c6.2-0.7,10.7-6.3,10-12.5c0,0,0,0,0,0c-0.7-6.2-6.3-10.7-12.5-9.9c-0.6,0-1.2,0.1-1.8,0.2
	c-27.2,2.7-58.6-1-91.3-10c-8.8-26.3-16.4-52.9-22.9-79.9c-15.5-65-23-128.7-19.4-183.2c1.4-22.1,4.6-42.6,9.8-61
	c28,19.6,54.7,44.6,78,73.2c57.8,71.2,94,164.8,73,254.5c-0.8,3.7,0.2,7.5,2.7,10.2c0,0,0,0,0,0c4.2,4.6,11.4,4.9,16,0.6
	c50.6-46.5,99.1-136,113-223.1c5.1-32.4,5.6-64.6-0.4-94.3l0,0.1v-0.1c-6.1-30.3-18.8-58-39.7-80.7c-25.3-27.5-62.5-47.6-114.4-56
	c-0.6-0.1-1.1-0.2-1.8-0.2c-47.2-3.2-82.8,10.6-108.5,36.8c-12.1,12.4-21.9,27.4-29.6,44.6C197.1,59.3,157,46.8,120.7,47.9
	c-37.5,1.2-70.9,16.7-94.9,50.4c-0.3,0.4-0.6,0.9-0.8,1.3C4,135.6-2.9,171.9,1,206.9c4.7,42.2,24.9,82.4,54.7,118.1
	C84.9,360.1,123.3,391.1,165,415.5L165,415.5z M343.1,175.2c-26.1-32.1-56.3-59.8-87.8-81.2c6.7-16.1,15.5-29.8,26.3-40.9
	c21.1-21.4,50.8-32.7,90.6-30.1c46.4,7.5,79.3,25.1,101.3,49c18,19.6,28.9,43.6,34.2,69.9h0c5.4,27,5,56.5,0.3,86.2
	c-10.8,67.9-43.7,137.1-81.5,183.7C433.2,326.6,397,241.5,343.1,175.2L343.1,175.2z M253.6,432c-26.8-9.5-52.6-21.6-77.2-36
	c-39.5-23.2-75.9-52.4-103.4-85.5c-27-32.4-45.4-68.6-49.5-106.1c-3.3-30.4,2.6-61.8,20.9-93.3c19.5-27.1,46.5-39.6,77-40.6
	c32.1-1,68.1,10.5,103.5,31.2c1,0.6,1.9,1.1,2.9,1.7c-6.9,21.7-11,46.1-12.7,72.4c-3.7,56.7,4,122.6,20.1,189.8
	C240.4,387.7,246.6,409.9,253.6,432z M522.1,550c9.2-19.8,22.5-37.3,39.1-51.5c17,11.5,32.4,26,45.3,42.2c15.3,19,27.4,40.3,35,61.4
	c7.5,20.7,10.7,41.3,8.6,59.5c-2.7,23.9-15,43.7-39.4,54c-48.9-0.7-80.3-25.9-94-60c-6.3-15.6-9-33.1-8.1-51.1
	C509.5,585.6,514.1,567.1,522.1,550L522.1,550z M137.5,594c32.3,9,65.6,33.7,107.7,99.1c-41.2-17.5-69.5-36.9-86.9-56.8
	C145.8,622,139.1,607.7,137.5,594z M309.6,517.9c-7.4-17.2-14.3-34.5-20.7-52.1c16,3.6,31.8,6.1,46.8,7.2
	c-7.4,8.4-13.7,17.7-18.7,27.7C314.2,506.3,311.8,512,309.6,517.9L309.6,517.9z"/>
<path class="st5" d="M401.3,593.5c-17.3,0.4-34.5,1.3-51.5,2.4c16.3,39.7,48.3,89.9,73.9,111.6C411.8,682.3,402.5,637.9,401.3,593.5
	z"/>
<path class="st6" d="M349.8,596c17-1.1,34.2-2,51.5-2.4c-1-34.5,2.9-68.9,14.2-94.2c0,0-32.8-6-52.5,0.3c0,0-21,25.2-23.6,52.9
	C338.4,562.6,342.6,578.2,349.8,596z M260.5,603.2c4.1-0.4,8.2-0.7,12.3-1l16.1-1.4c-0.7-24.5,0-44,0-44l-21.2-53.5l-25,2.5
	c-1.7,10.1,0.5,48.6,7.1,69.7C252.9,584.9,256.4,594.1,260.5,603.2L260.5,603.2z"/>
<path class="st5" d="M260.5,603.2c15.2,34.4,34,59.7,34,59.7c-3.5-18.8-5-42.1-5.6-62.1l-16.1,1.4
	C268.7,602.5,264.6,602.8,260.5,603.2L260.5,603.2z M134,608.5c8.9,45,145.6,141,113.3,85.8s-111.2-85.8-111.2-85.8"/>
</svg>
