<svg xmlns="http://www.w3.org/2000/svg" id="Layer_1" viewBox="0 0 800 777.98"><style>.st0{fill:#ffb600}.st2{fill:#c9c9c9}.st3{fill:#ff8d00}.st4{fill:#ffb100}.st5{fill:#242424}.st6{fill:#8a8a8a}</style><path d="M86.24 517.95c7.84 8.48 12.38 30.1-9.72 54.61-35.03 38.85-65.84-31.36-27.7-58.59 16.45-11.75 32.83-.98 37.42 3.98z" class="st0"/><path fill="#999" d="M190.91 720c8 14.34 37.58-.94 47.17 0 37.81 3.72 65.91-66.22 55.93-122.4-41.46 4.94-81.74 14.59-118.99 31.54-5.02 27.04-2.43 58.03 15.89 90.86z"/><path d="M232.31 530.73s-46.44 39.96-57.29 98.41c37.25-16.95 77.53-26.6 118.99-31.54-5.81-32.68-24.5-60.72-61.7-66.87zM376.23 388.99S274.98 189.52 350.54 90.18c75.57-99.35 166.42-51.37 199.54 7.64 0 0-153.26 100.9-173.85 291.17z" class="st2"/><path d="M410.83 437.46s-6.82-161.36 120.81-275.11C659.26 48.6 785.29 127.54 773.4 239.62 761.51 351.7 530.56 455.29 410.83 437.46z" class="st2"/><path d="M368.38 604.34l-.48-11.09a674.6 674.6 0 0 0-70.53 3.98c3.08 36.78 1.14 99.56-16.24 144.59-1.87 4.84 5.02 9.37 10.54 6.47 16.56-8.71 32.71-21.97 48.2-44.89l17.48-51.96 11.03-47.1z" class="st3"/><path d="M660.73 576.25s-29.62-45.97-53.33-46.66c-10.73 28.75-24.42 54.43-38.71 76.72a752.93 752.93 0 0 1 40.56 6.26c24.34-22.21 51.48-36.32 51.48-36.32z" class="st0"/><path d="M358.4 670.33a246.42 246.42 0 0 1-18.54 33.07l-13.94 41.44s2.75 4.14 16.21-.62c-.08-12.94 26.98-77.97 16.27-73.89zM343.12 746.43c2.49.27 6.1-2.64 10.34-7.19a95.7 95.7 0 0 1-11.32 4.98c0 1.35.3 2.13.98 2.21z" class="st4"/><path d="M365.83 545.3l-3.4-58.59S250.3 496.55 264 515.8c14.54 20.44 30.21 48.6 33.05 77.89l.32 3.53a674.6 674.6 0 0 1 70.53-3.98l-2.07-47.94z" class="st0"/><path d="M568.69 606.31c-29.76 46.43-62.07 77.95-75.76 90.92 0 0-2.93 24.08-5.24 40.81-.6 4.31 6.29 8.69 11.2 5.13 15.24-11.05 34.21-34 34.21-34s24.77-20.84 47.55-61.98c7.1-12.83 17.56-24.55 28.6-34.62a749.87 749.87 0 0 0-40.56-6.26z" class="st3"/><path d="M467.59 707.98l-2.42 8.83s20.16-10.43 21.01-12.97c.14-.43 2.62-2.7 6.75-6.61-2.16-4.44-14.56 3.77-25.34 10.75z" class="st4"/><path d="M489.46 606.87S465.17 658.23 400 708.33a674.06 674.06 0 0 1-6.52 4.94c-2.76 11.46-8.06 24.23-11.87 36.61-4.77 8.56.11 15.35 14.87 8.32 16.47-6.56 36.59-21.25 57.44-42.32 3.09-1.08 8.16-4.32 13.67-7.88l19.66-71.83 2.21-29.3z" class="st3"/><path d="M395.02 695.48c-10.22 1.1-28.75 29.96-41.57 43.75 9.69-4.94 22.67-13.02 40.03-25.97 1.55-6.43 2.32-12.46 1.54-17.78z" class="st4"/><path d="M209.89 581.06a23.27 23.27 0 1 0 0 46.54 23.27 23.27 0 0 0 0-46.54z" class="st5"/><path d="M635 415.5c41.64-24.42 80.09-55.37 109.3-90.5 29.73-35.76 50-75.91 54.67-118.14 3.88-34.98-2.96-71.21-23.93-107.26-.25-.44-.52-.88-.82-1.32-24.04-33.65-57.41-49.16-94.91-50.36-36.39-1.16-76.46 11.34-115.24 33.91-7.66-17.24-17.44-32.23-29.57-44.59C508.78 11.05 473.12-2.75 425.95.46c-.6.03-1.17.1-1.75.22-51.92 8.41-89.09 28.49-114.41 56.03-20.92 22.78-33.59 50.45-39.68 80.73v.06l-.05-.06c-5.93 29.65-5.5 61.86-.36 94.28 13.88 87.1 62.39 176.65 112.99 223.13a11.31 11.31 0 0 0 16.01-.67 11.38 11.38 0 0 0 2.71-10.24c-20.97-89.75 15.21-183.34 73.01-254.52 23.26-28.65 50.03-53.6 77.99-73.21 5.2 18.38 8.43 38.89 9.84 60.98 3.53 54.52-3.91 118.14-19.44 183.18a958.54 958.54 0 0 1-22.88 79.88c-32.64 8.95-64.05 12.64-91.29 9.95a19.4 19.4 0 0 0-1.84-.18 11.3 11.3 0 0 0-12.51 9.99 11.37 11.37 0 0 0 10 12.54l2.13.19c1.32.32 3.02 1.04 5.02 2.11 9.53 5.1 21.58 17.09 31.26 36.12 5.5 10.84 10.15 23.83 13.06 39.08-36.84 77.14-82.23 143.63-130.11 182.89 78.32-167.58 12.87-267.64 6.66-276.49a11.38 11.38 0 0 0-7.74-5.2c-37.25-6.43-72.95 2.11-104.27 19.66-31.48-22.25-73.03-36.43-124.67-36.27v-.06c-61.33 0-94.08 25.68-107.87 56.4A90.15 90.15 0 0 0-.01 526.3a91.7 91.7 0 0 0 5.36 33.09c8.15 22.53 24.89 38.57 45.12 38.1h.44c17.71 0 30.66-6.55 39.28-16.01a49.01 49.01 0 0 0 11.36-22.03 50 50 0 0 0-.21-23.19c-2.72-10.59-9.12-19.57-18.78-23.98a11.26 11.26 0 0 0-14.98 5.58 11.33 11.33 0 0 0 5.61 15c3.01 1.38 5.15 4.76 6.25 9.01a26.8 26.8 0 0 1 .02 12.57 26.12 26.12 0 0 1-6.03 11.79c-4.62 5.08-11.96 8.57-22.52 8.57-.4 0-.77 0-1.16.03-9.58.03-18.23-9.64-23.13-23.16a70.31 70.31 0 0 1-4.03-25.02 67.55 67.55 0 0 1 5.83-26.44c10.49-23.38 36.75-42.92 87.21-42.92v-.03c42.25-.13 76.84 10.31 103.83 27.06a237.08 237.08 0 0 0-43.69 42.11c-16.84 20.92-30.13 44.4-38.6 67.93-8.64 23.95-12.32 48.03-9.85 69.71 3.72 32.43 20.77 59.4 54.93 73.07 1.46.72 3.14 1.14 4.92 1.14 60.77 0 99.91-31.45 117.16-74.34 7.52-18.66 10.74-39.42 9.72-60.62a169 169 0 0 0-15.61-62.87 175.03 175.03 0 0 0-39.04-53.98c23.7-11.63 49.72-17.17 76.65-13.64 12.64 20.52 64.33 121.98-30.45 288.2a11.3 11.3 0 0 0 4.25 15.44 11.31 11.31 0 0 0 11.47-.15c56.99-29.66 112.34-98.29 157.56-182.99-1.47 40.8-14.38 91.76-47.41 153.21a11.29 11.29 0 0 0 4.61 15.31 11.37 11.37 0 0 0 13.58-2.14c35.88-34.76 66.87-78.65 91.18-121.89 27.2-48.3 46.21-96.11 54.6-129.42 23.04 10.62 41.08 24.08 52.73 39.29 5.58 7.25 9.66 14.91 12.09 22.82-42.35 9.73-85.4 41.56-142.34 139.34l.02.03a11.31 11.31 0 0 0 13.52 16.35c62.13-21.65 103.35-47.83 127.23-75.1 17.36-19.76 25.84-40.27 26.74-60.28 0-.34.02-.63.03-.94 12.58-1.16 25.33-.79 38.64-.4 8.4.28 17.04.5 26.22.44a11.3 11.3 0 1 0-.08-22.62c-8.62.09-17.19-.19-25.51-.41-14.41-.41-28.22-.82-41.86.22-3.03-11.66-8.7-22.81-16.69-33.21-16.18-21.05-41.97-39.08-74.82-51.74a11.34 11.34 0 0 0-15.2 8.55c-5.53 30.75-25.09 82.72-55.07 136a608.18 608.18 0 0 1-38.03 59.46c12.13-34.85 17.56-65.76 18.45-92.74a221.3 221.3 0 0 0-2.32-40.72 986.87 986.87 0 0 0 38.29-94.09c32.73-10.03 66.07-24.78 97.52-43.15zM456.88 175.16c-53.9 66.36-90.09 151.44-83.31 236.74-37.79-46.63-70.68-115.87-81.47-183.74-4.74-29.78-5.17-59.21.26-86.25h-.04c5.27-26.34 16.2-50.32 34.16-69.89 22.03-23.92 54.88-41.47 101.32-48.97 39.81-2.64 69.52 8.63 90.58 30.06 10.86 11.06 19.57 24.83 26.31 40.9-31.5 21.31-61.74 49.04-87.81 81.15zm107.94 190.46c16.05-67.21 23.73-133.17 20.06-189.83-1.67-26.31-5.82-50.67-12.72-72.39.98-.6 1.96-1.16 2.92-1.73C610.48 81 646.53 69.47 678.6 70.5c30.42.98 57.46 13.52 76.95 40.59 18.3 31.48 24.25 62.96 20.91 93.31-4.16 37.53-22.53 73.67-49.54 106.1-27.48 33.09-63.84 62.3-103.38 85.49a451.6 451.6 0 0 1-77.18 35.99c7-22.09 13.18-44.31 18.46-66.36zM277.89 549.97a146.72 146.72 0 0 1 13.57 54.44c.88 18-1.84 35.52-8.13 51.11-13.74 34.16-45.11 59.34-94.03 60.03-24.44-10.33-36.68-30.18-39.42-54.04-2.08-18.21 1.13-38.79 8.6-59.5 7.61-21.11 19.65-42.35 34.98-61.39 12.98-16.16 28.33-30.62 45.33-42.16a152.22 152.22 0 0 1 39.1 51.51zm363.8 86.3c-17.42 19.89-45.76 39.33-86.92 56.81 42.12-65.35 75.44-90.09 107.7-99.07-1.61 13.71-8.27 28.02-20.78 42.26zM490.35 517.88a157.42 157.42 0 0 0-7.42-17.11 130.96 130.96 0 0 0-18.7-27.73c15.06-1.1 30.77-3.6 46.81-7.25a972.92 972.92 0 0 1-20.69 52.09z" class="st5"/><path d="M376.23 707.58c25.55-21.73 57.57-71.92 73.89-111.63-17-1.11-34.2-1.97-51.46-2.41-1.23 44.32-10.49 88.72-22.43 114.04z" class="st5"/><path d="M460.63 552.52c-2.57-27.7-23.58-52.86-23.58-52.86-19.74-6.37-52.54-.32-52.54-.32 11.23 25.35 15.12 59.75 14.16 94.2 17.26.44 34.46 1.3 51.46 2.41 7.27-17.71 11.44-33.34 10.5-43.43zM539.5 603.18a267.3 267.3 0 0 0 10.58-27.74c6.65-21.06 8.83-59.56 7.14-69.71l-24.97-2.46-21.23 53.49s.71 19.51.05 44l16.09 1.43c4.11.29 8.23.63 12.34.99z" class="st6"/><path d="M539.5 603.18c-4.12-.36-8.23-.7-12.35-.99l-16.09-1.43c-.55 20.02-2.02 43.37-5.56 62.14.01 0 18.77-25.33 34-59.72zM663.87 608.55s-78.97 30.57-111.23 85.76c-32.26 55.19 104.44-40.76 113.35-85.76" class="st5"/></svg>