<?xml version="1.0" standalone="no"?>
<!DOCTYPE svg PUBLIC "-//W3C//DTD SVG 20010904//EN"
 "http://www.w3.org/TR/2001/REC-SVG-20010904/DTD/svg10.dtd">
<svg version="1.0" xmlns="http://www.w3.org/2000/svg"
 width="1320.000000pt" height="1320.000000pt" viewBox="0 0 1320.000000 1320.000000"
 preserveAspectRatio="xMidYMid meet">
<metadata>
Created by potrace 1.11, written by Peter Selinger 2001-2013
</metadata>
<g transform="translate(0.000000,1320.000000) scale(0.100000,-0.100000)"
fill="#000000" stroke="none">
<path d="M7019 13000 c-358 -45 -869 -206 -1176 -370 -755 -403 -1223 -1048
-1392 -1920 -88 -451 -86 -993 4 -1547 188 -1151 764 -2410 1504 -3283 144
-170 360 -387 405 -405 112 -47 243 23 261 140 5 26 -2 81 -18 160 -62 293
-81 526 -74 877 7 357 39 605 123 948 309 1262 1176 2531 2310 3382 73 55 137
97 143 94 15 -9 68 -246 101 -448 175 -1087 42 -2493 -386 -4053 -44 -161
-174 -594 -235 -787 l-12 -37 -166 -40 c-447 -109 -841 -150 -1226 -129 -220
12 -245 7 -298 -51 -49 -54 -64 -109 -48 -168 23 -87 75 -132 171 -148 140
-23 343 -193 490 -410 151 -224 268 -501 329 -778 l19 -88 -121 -242 c-117
-232 -369 -699 -374 -693 -2 1 13 38 32 82 108 248 199 554 211 710 16 225
-91 538 -286 833 -44 66 -91 127 -103 135 -76 50 -440 66 -712 32 -77 -10
-141 -19 -142 -20 -2 -2 16 -52 38 -112 117 -308 189 -771 189 -1210 0 -681
-112 -1413 -291 -1909 l-32 -90 -196 -196 c-197 -196 -328 -316 -336 -307 -2
2 20 60 51 128 589 1319 717 2645 358 3725 -100 303 -270 646 -358 723 -57 50
-227 75 -501 75 -407 1 -784 -92 -1178 -290 l-129 -64 -91 59 c-183 117 -303
181 -493 260 -393 165 -797 250 -1286 272 -408 18 -728 -19 -1033 -121 -552
-184 -922 -583 -1029 -1110 -102 -502 60 -1049 387 -1305 135 -105 251 -144
431 -144 402 0 700 210 816 575 32 100 39 293 15 401 -28 131 -83 234 -167
318 -124 123 -230 156 -324 101 -54 -32 -84 -81 -90 -147 -8 -76 23 -131 101
-183 41 -28 66 -55 82 -86 71 -137 39 -337 -72 -457 -90 -97 -199 -141 -358
-145 -72 -1 -89 2 -139 26 -203 100 -355 460 -335 797 27 458 291 806 745 981
520 200 1406 158 2052 -98 111 -44 324 -147 403 -196 l38 -23 -83 -64 c-589
-456 -1095 -1177 -1313 -1870 -93 -298 -129 -523 -129 -805 1 -246 20 -375 83
-566 72 -215 177 -386 331 -539 115 -115 238 -201 402 -280 l123 -60 123 0
c374 0 778 106 1071 282 237 141 467 361 607 578 16 25 34 51 41 58 28 30 156
306 194 421 228 687 124 1498 -279 2179 -122 205 -246 365 -425 549 l-80 82
75 34 c331 151 728 227 1051 200 106 -9 131 -14 142 -29 28 -38 125 -242 169
-354 97 -251 175 -564 213 -865 25 -197 25 -707 1 -920 -75 -645 -231 -1190
-546 -1905 -75 -171 -169 -358 -280 -558 -85 -153 -87 -159 -87 -223 0 -84 27
-128 103 -166 73 -36 117 -28 245 44 479 267 991 728 1438 1294 346 437 683
948 985 1491 54 98 99 176 100 175 1 -1 -2 -60 -7 -132 -19 -254 -62 -497
-149 -830 -107 -411 -269 -829 -525 -1350 -62 -126 -115 -243 -119 -258 -10
-40 10 -102 46 -143 55 -63 119 -82 196 -59 43 13 68 35 213 182 622 635 1160
1419 1643 2393 261 526 464 1033 591 1475 20 72 38 132 40 134 2 2 66 -29 142
-69 451 -234 772 -550 898 -885 l23 -61 -76 -18 c-159 -37 -371 -129 -556
-241 -502 -304 -1009 -877 -1543 -1745 -176 -285 -197 -328 -197 -384 0 -71
29 -124 89 -161 74 -46 116 -41 325 38 808 304 1391 639 1789 1030 368 362
535 678 586 1109 l6 46 51 7 c28 4 281 6 563 4 l511 -4 41 27 c71 47 103 151
69 231 -18 43 -77 94 -125 107 -24 6 -248 11 -598 13 l-560 2 -21 68 c-115
363 -410 718 -824 990 -264 173 -632 347 -734 347 -52 0 -113 -28 -143 -66
-23 -30 -23 -28 -85 -284 -51 -208 -126 -440 -223 -693 -74 -192 -105 -264
-98 -227 13 69 35 239 46 355 12 133 18 499 9 509 -3 3 -78 12 -165 21 -88 8
-179 17 -202 20 l-41 6 -175 -443 -175 -443 5 -240 c7 -296 -18 -840 -52
-1158 -16 -146 1 -112 -196 -408 -118 -178 -209 -308 -209 -298 0 3 11 39 25
80 116 336 211 766 251 1139 24 214 24 614 0 811 l-17 146 76 169 c170 374
319 740 465 1138 l88 239 208 72 c1483 510 2821 1490 3536 2590 553 852 716
1734 472 2564 -70 239 -203 544 -304 700 -84 129 -254 315 -390 426 -442 360
-1037 496 -1700 389 -400 -64 -897 -246 -1304 -477 l-78 -44 -68 133 c-124
242 -266 440 -440 614 -314 313 -694 500 -1163 571 -147 22 -506 34 -618 19z
m495 -385 c639 -75 1106 -413 1399 -1014 60 -122 68 -145 55 -152 -42 -23
-258 -183 -386 -286 -537 -429 -1007 -939 -1404 -1523 -496 -728 -829 -1526
-963 -2305 -49 -287 -59 -418 -60 -772 0 -183 -3 -329 -6 -325 -3 4 -35 45
-71 92 -484 635 -898 1479 -1116 2281 -317 1161 -252 2189 183 2884 364 582
960 949 1800 1110 148 29 376 32 569 10z m3971 -805 c334 -71 603 -221 828
-460 112 -119 157 -187 246 -371 178 -367 255 -691 254 -1079 0 -340 -57 -624
-195 -975 -464 -1178 -1819 -2349 -3442 -2976 -83 -32 -152 -56 -154 -54 -2 2
19 77 46 167 321 1040 523 2106 582 3068 13 212 13 792 0 980 -29 416 -99 832
-189 1119 -11 36 -18 68 -15 72 9 16 188 112 376 203 358 174 666 272 1013
321 153 22 519 13 650 -15z m-3065 -6498 c0 -12 -132 -354 -215 -557 -43 -104
-85 -207 -93 -227 -8 -21 -18 -38 -22 -38 -3 0 -21 37 -39 83 -78 191 -216
429 -330 565 -29 35 -51 65 -49 66 1 1 86 12 187 25 171 20 500 76 510 87 7 7
51 4 51 -4z m-4245 -752 c215 -244 397 -547 495 -825 93 -265 133 -497 134
-780 1 -228 -11 -332 -59 -520 -80 -312 -206 -538 -419 -750 -210 -210 -434
-334 -736 -409 -125 -30 -313 -56 -413 -56 -65 0 -79 4 -147 41 -215 117 -369
284 -461 499 -67 158 -99 326 -99 523 0 829 566 1836 1368 2430 l104 77 73
-66 c40 -36 112 -110 160 -164z m6745 -1367 c0 -28 -37 -174 -54 -215 -15 -35
-28 -44 -189 -122 -451 -221 -798 -454 -1138 -766 -111 -102 -110 -98 37 90
397 510 803 839 1224 994 110 41 120 42 120 19z"/>
<path d="M3353 3416 c-339 -110 -367 -573 -44 -725 49 -23 69 -26 156 -26 89
0 107 3 161 28 74 34 152 111 191 187 25 50 28 65 28 160 0 93 -3 112 -27 162
-37 80 -107 152 -186 190 -55 27 -77 32 -151 35 -54 2 -102 -2 -128 -11z"/>
</g>
</svg>
